<svg width="64" height="64" viewBox="0 0 64 64" fill="none" xmlns="http://www.w3.org/2000/svg">
<g clip-path="url(#clip0_203_753)">
<path d="M11.6546 18.3742C11.9635 18.0137 12.2596 17.6533 12.5557 17.2671C13.9331 15.4649 14.6668 13.328 14.6668 11.0753V9.29886C14.6668 8.97704 14.4094 8.71958 14.0875 8.71958C13.7657 8.71958 13.5083 8.97704 13.5083 9.29886V11.0753C13.5083 13.0706 12.8646 14.9629 11.6417 16.572C11.3585 16.9453 11.0624 17.28 10.7792 17.6275C9.20875 19.4812 7.57391 21.4121 7.35507 26.8831C6.85304 33.0877 5.05085 39.9876 5.0251 40.0519C4.94787 40.3609 5.12808 40.6698 5.43703 40.747C5.48852 40.747 5.54001 40.7599 5.57863 40.7599C5.83609 40.7599 6.0678 40.5926 6.13216 40.3351C6.14503 40.2708 7.97297 33.268 8.48788 26.9474C8.69384 21.8498 10.1227 20.1506 11.6417 18.3613L11.6546 18.3742Z" fill="#344153"/>
<path d="M9.60781 41.1075C9.63356 41.4164 9.87814 41.6481 10.1871 41.6481C10.1871 41.6481 10.2128 41.6481 10.2257 41.6481C10.5475 41.6224 10.7792 41.3521 10.7664 41.0302C10.7664 40.9916 10.6763 39.4984 10.908 37.6447C11.2169 39.8202 11.8734 42.678 13.3023 45.7031C13.3409 45.7803 13.3924 45.8575 13.4568 45.909L14.2163 44.9436C11.7704 39.6271 11.8091 34.7226 11.8348 33.9888C12.2982 32.856 12.9676 31.852 13.9202 31.1826C14.7827 30.5776 15.8254 30.2944 17.0483 30.3201C17.4216 30.3458 17.6275 30.0755 17.6404 29.7666C17.6404 29.4448 17.3958 29.1873 17.0869 29.1744C15.6194 29.1229 14.345 29.4962 13.2766 30.2429C9.15726 33.1392 9.62068 40.7857 9.64643 41.1075H9.60781Z" fill="#344153"/>
<path d="M21.2577 17.074C21.7597 17.5374 22.133 17.988 22.3905 18.4514C22.3905 18.4514 23.0212 19.3782 23.1628 20.3694C23.1628 20.3952 23.8194 23.2143 23.858 26.1622L22.4806 27.295C22.236 27.501 22.1974 27.8614 22.4033 28.106C22.5192 28.2476 22.6865 28.3119 22.841 28.3119C22.9697 28.3119 23.0985 28.2733 23.2015 28.1832L29.921 22.6479C31.8133 21.0903 32.8947 18.7861 32.8947 16.3274C32.8947 15.7224 33.3323 14.9886 34.1562 14.5252C34.6968 16.0571 36.5119 19.5713 41.661 19.906C41.6868 19.906 41.7125 19.9318 41.7511 19.9318H41.764C41.764 19.9318 41.8026 19.9318 41.8284 19.9318C42.0343 19.9318 42.2274 19.9704 42.4463 19.9704C43.2959 19.9704 44.2227 19.8932 45.2525 19.7001C45.5615 19.6486 45.7674 19.3396 45.7159 19.0307C45.6644 18.7217 45.3555 18.5158 45.0466 18.5673C44.0296 18.7475 43.1285 18.8247 42.3047 18.8118C42.1373 17.3315 41.1718 13.4954 35.8554 12.9805C35.3791 12.9805 34.9543 13.0577 34.5552 13.1607C34.5038 13.1607 34.4523 13.1607 34.4008 13.1607C34.3107 13.1736 34.2334 13.2122 34.1691 13.2637C32.6372 13.8172 31.749 15.1045 31.749 16.3274C31.749 18.4385 30.8093 20.4209 29.1873 21.7597L26.9474 23.6134C23.4718 15.4907 28.4664 10.7535 28.6853 10.5475C28.8011 10.4445 28.8655 10.2901 28.8655 10.1356C28.8655 9.98112 28.814 9.82664 28.6981 9.71079L26.4583 7.4838C26.2394 7.26496 25.8661 7.26496 25.6473 7.4838C25.4284 7.70264 25.4284 8.07595 25.6473 8.29478L27.4881 10.1227C27.0375 10.6376 26.2909 11.6288 25.6602 13.0062C22.9569 13.637 21.8627 15.1302 21.5023 15.7867C20.923 15.2976 20.3823 14.9243 20.0734 14.7183V9.29886C20.0734 8.97704 19.8159 8.71959 19.4941 8.71959C19.1723 8.71959 18.9148 8.97704 18.9148 9.29886V15.0401C18.9148 15.2461 19.0178 15.4263 19.1852 15.5293C19.1852 15.5293 20.2536 16.1858 21.2062 17.074H21.2577ZM41.1719 18.7217C37.0783 18.2197 35.6752 15.3877 35.2632 14.1648C35.4435 14.139 35.6237 14.1133 35.8297 14.1133C40.1163 14.5252 40.9916 17.4216 41.1719 18.7089V18.7217ZM25.1967 14.3579C24.4115 16.8423 24.2055 20.2278 26.0592 24.3729L25.0036 25.2354C24.862 22.5321 24.3214 20.215 24.3085 20.1506C24.1283 18.9277 23.3817 17.8464 23.3688 17.8335C23.1371 17.4345 22.8024 17.0225 22.3905 16.6106C22.4162 16.5849 22.442 16.5591 22.4548 16.5205C22.4806 16.4561 23.047 15.1045 25.1839 14.3579H25.1967Z" fill="#344153"/>
<path d="M30.9637 8.34627C31.0667 8.42351 31.1826 8.46213 31.3113 8.46213C31.4014 8.46213 31.4787 8.43638 31.5688 8.39776C31.7619 8.29478 31.8906 8.10169 31.8906 7.88285V2.57927C31.8906 2.25745 31.6331 2 31.3113 2C30.9895 2 30.732 2.25745 30.732 2.57927V6.73718L28.917 5.35979C28.6595 5.1667 28.2991 5.21819 28.1189 5.46277C27.9258 5.72023 27.9773 6.08067 28.2218 6.26088L30.9509 8.34627H30.9637Z" fill="#344153"/>
<path d="M34.3493 7.93435C34.4136 7.96009 34.478 7.97296 34.5552 7.97296C34.7097 7.97296 34.8771 7.9086 34.98 7.77987L38.9577 3.31302C39.1637 3.08131 39.1508 2.708 38.9062 2.50203C38.6617 2.29607 38.3012 2.30894 38.0953 2.55353L35.1216 5.90045V2.57927C35.1216 2.25745 34.8642 2 34.5424 2C34.2206 2 33.9631 2.25745 33.9631 2.57927V7.39369C33.9631 7.63827 34.1047 7.84424 34.3364 7.93435H34.3493Z" fill="#344153"/>
<path d="M38.6488 7.6254C38.7131 7.77987 38.8419 7.89573 39.0092 7.94722C39.3439 8.0502 46.9646 10.5604 46.9002 24.8878C45.407 24.2441 44.1841 23.6134 43.3087 23.1242C44.4029 23.0341 45.1238 23.0727 45.1495 23.0727C45.4199 23.0985 45.7417 22.8539 45.7546 22.5321C45.7674 22.2102 45.5357 21.9399 45.2139 21.927C44.8663 21.9013 36.4475 21.4894 32.1609 27.3851C29.1744 31.1697 28.7625 31.646 28.7496 31.6589C28.5437 31.9035 28.5694 32.2639 28.8011 32.4699C28.9041 32.56 29.0457 32.6115 29.1744 32.6115C29.3289 32.6115 29.4962 32.5471 29.6121 32.4184C29.625 32.4055 29.9983 31.9678 33.0749 28.0802C33.4353 27.5782 33.8472 27.1405 34.2849 26.7286L38.0824 31.0538C38.0824 31.0538 39.1122 32.2639 41.1976 31.5816C42.0086 31.3113 42.8453 31.1568 43.6692 31.0796C44.0811 32.3154 45.6902 37.4001 45.3941 42.472L46.3596 43.9266C47.0805 38.5587 45.4585 32.8947 44.8663 31.041C46.1021 31.041 47.2478 31.1954 48.1875 31.3885C48.4321 32.5085 49.7709 39.2023 48.4192 45.6516L48.3806 45.7932H49.5649C50.8007 39.7687 49.8224 33.7571 49.4233 31.6975C50.1056 31.8777 50.5304 32.0322 50.5432 32.045C50.6076 32.0708 50.6848 32.0837 50.7492 32.0837C50.9809 32.0837 51.1997 31.9421 51.2899 31.7232C51.4057 31.4272 51.2641 31.0925 50.968 30.9766C50.7492 30.8865 45.6387 28.917 40.8372 30.5132C39.5499 30.9509 38.9964 30.3587 38.9706 30.333L35.1731 25.9948C37.1684 24.463 39.537 23.7164 41.4679 23.3817C42.0987 23.7936 44.1712 25.0423 47.1448 26.2523C47.2221 26.3038 47.3122 26.3424 47.4023 26.3553C48.7539 26.8959 50.2858 27.4109 51.9464 27.8357C51.9979 27.8357 52.0365 27.8485 52.088 27.8485C52.3454 27.8485 52.5771 27.6812 52.6415 27.4109C52.7187 27.1019 52.5385 26.793 52.2296 26.7157C50.7106 26.3295 49.3074 25.8532 48.0459 25.3641C48.239 11.9635 41.9957 8.02445 39.9618 7.09761L41.3392 4.22699C41.4808 3.94378 41.3521 3.59622 41.0689 3.46749C40.7857 3.32589 40.4381 3.45462 40.3094 3.73782L38.6745 7.16198C38.5973 7.31645 38.5973 7.4838 38.6745 7.63827L38.6488 7.6254Z" fill="#344153"/>
<path d="M26.5613 56.9796C22.5063 55.1645 19.2109 52.5643 16.7522 49.2431C16.7136 49.2045 16.6878 49.1658 16.6363 49.1401L16.1729 49.7322C16.0828 49.8352 15.9927 49.9382 15.9026 50.0283C18.4643 53.4525 21.8884 56.1429 26.0978 58.0352C26.8573 58.3699 27.6554 58.6659 28.4793 58.9105L28.7496 58.9878L28.5179 57.7134C27.8357 57.5203 27.1791 57.2628 26.5613 56.9796Z" fill="#344153"/>
<path d="M40.0519 57.1083C38.3785 57.8807 36.602 58.357 34.7355 58.4729L34.3107 59.6571C34.3879 59.6571 34.4651 59.6443 34.5424 59.6443C36.6406 59.5284 38.6617 59.0264 40.5411 58.1382C43.8623 56.5677 46.3725 54.0189 47.9944 50.5432L48.1103 50.2858L46.8359 50.3115C45.3169 53.401 43.0384 55.6923 40.0519 57.1083Z" fill="#344153"/>
<path d="M27.9644 54.6754L27.7327 53.4139C26.1879 52.9504 24.8234 52.3197 23.5104 51.4572C23.2658 51.7919 22.944 52.0622 22.5707 52.2167C22.6479 52.2682 22.7123 52.3197 22.7895 52.3583C24.257 53.3366 25.9047 54.0961 27.7198 54.611C27.797 54.6368 27.8871 54.6625 27.9644 54.6754Z" fill="#344153"/>
<path d="M33.0491 49.7966L33.6413 48.1489C33.0749 44.4673 31.7619 39.9618 29.728 34.7226C29.6121 34.4265 29.2774 34.2849 28.9813 34.3879C28.917 34.4136 28.8655 34.4523 28.814 34.4909C28.6338 34.6453 28.5565 34.9028 28.6466 35.1345C28.8526 35.6623 29.0586 36.1901 29.2259 36.6921C31.1053 41.6868 32.251 45.9348 32.6501 49.2817C32.6501 49.552 32.8174 49.7322 33.0491 49.7966Z" fill="#344153"/>
<path d="M14.7312 33.5512C14.3836 33.5383 14.1519 33.7958 14.139 34.1047C14.139 34.272 14.036 38.1854 15.5808 42.678C15.6194 42.7938 15.6838 42.8839 15.7739 42.9483L16.1472 42.4591C16.2759 42.3047 16.4175 42.1502 16.5849 42.0472C15.1817 37.8764 15.2847 34.1819 15.2976 34.1433C15.2976 33.8344 15.053 33.564 14.7312 33.5512Z" fill="#344153"/>
<path d="M34.5038 45.7288L34.5939 45.4842C34.7355 45.098 34.98 44.7505 35.3019 44.5059L35.2246 44.2999C33.6799 39.8331 31.8648 34.3879 31.8648 34.3879L30.7706 34.7612C30.7706 34.7612 32.5986 40.2064 34.1433 44.6732L34.5038 45.7288Z" fill="#344153"/>
<path d="M44.4802 49.2946L43.8623 48.3677C43.8623 48.3677 43.8108 48.4965 43.7593 48.5608L43.7207 48.6381L42.3561 52.0107C43.2572 51.2512 43.9781 50.363 44.5445 49.3976C44.5316 49.3589 44.5059 49.3332 44.4802 49.2946Z" fill="#344153"/>
<path d="M58.0094 46.926L49.2431 47.0547L48.0459 47.0805H46.8874L46.012 45.7674L45.1624 44.4544L44.197 42.9869C44.0167 42.7166 43.7207 42.5621 43.3988 42.5621H43.2959C42.9354 42.6007 42.6265 42.8324 42.4849 43.1543L39.846 49.6421L37.5546 45.7546C37.3744 45.4585 37.0654 45.2783 36.705 45.2783H36.6278C36.2544 45.3169 35.9326 45.5615 35.8168 45.9219L35.791 45.9734L35.1731 47.7112L33.5769 52.1652L32.4312 55.3448L31.7232 57.3272L31.3628 55.3576L31.144 54.1605L27.6039 34.9286C27.5267 34.4909 27.1534 34.1691 26.7157 34.1304H26.6642C26.2137 34.1304 25.8661 34.4008 25.7374 34.7998L21.425 47.8399L18.7475 43.3473C18.593 43.077 18.2969 42.8968 17.9751 42.8839C17.9622 42.8839 17.9494 42.8711 17.9236 42.8711C17.6275 42.8711 17.3443 43.0127 17.1641 43.2444L17.0097 43.4375L16.263 44.39L14.8084 46.2566L14.0618 47.2092L13.9202 47.3765H8.79683C8.26904 47.3765 7.83137 47.8142 7.83137 48.342C7.83137 48.8698 8.26904 49.3074 8.79683 49.3074H14.3965C14.6926 49.3074 14.9758 49.1658 15.156 48.9341L15.8769 48.0073L17.2156 46.2952L17.8078 45.5486L20.8457 50.6462C21.0131 50.9294 21.3092 51.1225 21.6439 51.1225C21.6825 51.1225 21.734 51.1096 21.7726 51.1096C22.0558 51.0839 22.3004 50.9294 22.4548 50.6977C22.5063 50.6333 22.5578 50.5432 22.5836 50.4531L26.381 38.9835L29.1101 53.8L29.3289 55.0101L29.9082 58.0995L30.127 59.3225L30.4746 61.2019C30.5518 61.6396 30.9122 61.9614 31.3499 61.9871C31.3757 61.9871 31.4014 61.9871 31.4272 61.9871C31.8262 61.9871 32.1867 61.7297 32.3283 61.3435L32.9461 59.6314L33.3452 58.4857L36.2158 50.4917L36.808 48.8569L36.9367 48.4965L39.1766 52.2939C39.2538 52.4098 39.3439 52.5128 39.4598 52.5771C39.6271 52.693 39.8202 52.7573 40.0262 52.7573H40.0777C40.4381 52.7316 40.7599 52.4999 40.9015 52.1652L41.159 51.5473L43.5919 45.5743L44.493 46.9517L45.2268 48.0717L45.5615 48.5866C45.7288 48.844 46.0635 49.0242 46.3338 49.0242C46.3467 49.0242 46.3724 49.0242 46.3853 49.0114H47.4023L48.6381 48.9728L58.0352 48.844C58.563 48.8311 58.9878 48.3935 58.9878 47.8657C58.9749 47.325 58.4857 46.9131 58.0094 46.9131V46.926Z" fill="#344153"/>
<path d="M24.2313 50.4402L26.0592 43.2572L27.4109 51.9978C27.4109 51.9978 24.3986 51.1354 24.2313 50.4402Z" fill="#11CAA9"/>
<path d="M16.263 34.1304C16.263 34.1304 16.7522 40.0262 17.6275 41.1332C18.0781 41.2748 18.799 40.9273 19.4684 42.0729C20.1377 43.2186 20.9616 44.4287 20.9616 44.4287L24.2442 34.375C24.2442 34.375 20.2665 36.6535 16.2759 34.1176L16.263 34.1304Z" fill="#11CAA9"/>
</g>
<defs>
<clipPath id="clip0_203_753">
<rect width="53.9755" height="60" fill="white" transform="translate(5.01223 2)"/>
</clipPath>
</defs>
</svg>
