<svg width="64" height="64" viewBox="0 0 64 64" fill="none" xmlns="http://www.w3.org/2000/svg">
<g clip-path="url(#clip0_203_2051)">
<path d="M51.4814 52.9715C51.1746 52.9715 50.8824 52.7816 50.7801 52.4602L49.1731 47.4931C49.1731 47.4931 49.1439 47.3616 49.1439 47.2885C49.0709 45.0533 49.4361 42.8473 50.225 40.7582C50.7509 39.3704 51.4522 38.0555 52.3287 36.843C54.7246 33.5267 56.1855 29.8744 56.58 26.2951C56.8283 24.0307 56.6969 21.7516 56.2001 19.5603C55.6742 17.2374 54.7538 15.046 53.4682 13.03C49.8451 7.3908 43.3587 3.82616 36.1271 3.47554C26.8941 3.05187 19.1074 6.30972 15.3382 12.2557C13.5997 15.0168 12.7232 18.4646 12.8108 22.2484C12.8108 22.6574 12.504 22.9788 12.095 22.9934C11.6859 22.9934 11.3645 22.6866 11.3499 22.2776C11.2476 18.2016 12.2118 14.4617 14.111 11.4668C18.1724 5.11177 26.4266 1.56173 36.2148 2.04383C43.9138 2.40906 50.824 6.23668 54.71 12.2703C56.0979 14.4178 57.0767 16.7699 57.6465 19.2681C58.1724 21.6202 58.3185 24.0599 58.0555 26.485C57.6465 30.3126 56.0833 34.1987 53.5413 37.7195C52.7524 38.8298 52.095 40.0278 51.6129 41.2988C50.897 43.1834 50.561 45.1556 50.6194 47.1571L52.1826 52.0219C52.2995 52.4018 52.095 52.8108 51.7151 52.9423C51.6421 52.9715 51.569 52.9715 51.496 52.9715H51.4814Z" fill="#344153"/>
<path d="M26.0614 62C25.7107 62 25.4039 61.7516 25.3455 61.3864C24.2352 54.8999 22.1607 53.4244 15.3236 54.2279C13.0592 54.4909 11.4522 54.0088 10.5318 52.7962C9.08546 50.9116 9.87436 47.9021 10.2396 46.8064C10.0058 46.485 9.69905 45.9591 9.4653 45.1848C9.33382 44.7904 9.39226 44.3813 9.59678 44.0161C9.88897 43.5194 10.5026 43.1395 11.1015 42.8765L10.1665 42.336C9.81592 42.1315 9.69905 41.6786 9.90358 41.3426C10.1081 40.992 10.561 40.8751 10.897 41.0796L13.2491 42.4529C13.5121 42.599 13.6435 42.9058 13.5997 43.198C13.5559 43.4901 13.3221 43.7385 13.0299 43.7969C12.0219 44.0161 10.9262 44.4982 10.8386 44.7757C11.16 45.74 11.5398 46.1198 11.5544 46.1198C11.7736 46.3243 11.8466 46.6457 11.7443 46.9233C11.3791 47.8583 10.6486 50.561 11.6859 51.905C12.2849 52.6793 13.4536 52.9861 15.1483 52.767C22.7158 51.8758 25.55 53.9211 26.7918 61.1381C26.8649 61.5325 26.5873 61.9123 26.1928 61.9854C26.149 61.9854 26.1052 61.9854 26.076 61.9854L26.0614 62Z" fill="#344153"/>
<path d="M10.7071 39.6918C10.3419 39.6918 10.0351 39.458 10.0058 39.0928C9.96201 38.5815 9.94741 38.4208 8.74945 38.1724C7.43462 38.0409 6.51424 37.5296 6.07597 36.6677C5.40394 35.3236 6.28049 33.8042 6.38276 33.6289L11.6275 26.5873V25.4624C11.6275 25.0533 11.9489 24.7319 12.3579 24.7319C12.767 24.7319 13.0884 25.0533 13.0884 25.4624V26.8357C13.0884 26.9964 13.0446 27.1425 12.9423 27.2739L7.59532 34.4471C7.49306 34.637 7.11322 35.4989 7.39079 36.0248C7.63915 36.507 8.38422 36.6823 8.9832 36.7407C10.9408 37.1498 11.3499 37.8072 11.4522 38.859C11.4814 39.2535 11.2038 39.6771 10.7947 39.7064C10.7655 39.7064 10.7363 39.7064 10.7071 39.7064V39.6918Z" fill="#344153"/>
<path d="M37.9386 58.0263C37.6465 58.0263 37.3689 57.851 37.2666 57.5588C37.2374 57.5004 34.9584 51.7297 33.103 46.7188C31.7736 43.1541 31.1746 39.4142 30.7947 36.5508C30.561 34.8123 29.8598 33.6143 29.0855 33.6143C26.8503 33.6143 25.9007 32.8254 24.542 31.5252C22.2776 29.7429 20.0424 29.0563 17.9679 29.5238C14.3302 30.3419 12.2849 34.4178 12.2557 34.4617C12.0803 34.7538 12.0219 34.9438 12.0657 35.0899C12.1388 35.3382 12.4894 35.5427 12.6501 35.6012C12.6647 35.6012 17.3251 37.179 20.8751 35.9226C22.7597 35.2506 24.8488 35.5866 26.5873 36.843C28.5741 38.2601 29.7721 40.6121 29.7429 42.9788C29.7429 43.3294 29.4945 43.6216 29.1585 43.6801C28.8079 43.7385 28.4865 43.5632 28.3404 43.2418C28.3112 43.1687 27.4785 41.2988 25.0679 40.3638C22.5844 39.3996 19.385 39.7502 15.5427 41.4449C15.1775 41.6056 14.7392 41.4449 14.5785 41.065C14.4178 40.6998 14.5785 40.2615 14.9584 40.1008C19.1804 38.2454 22.7889 37.8802 25.6523 39.0197C26.4266 39.3265 27.0548 39.7064 27.5807 40.1154C27.1424 39.2973 26.5142 38.5815 25.74 38.0263C24.3813 37.0475 22.7889 36.7845 21.3572 37.2958C17.3104 38.7422 12.3433 37.0475 12.1242 36.9744C11.9927 36.916 10.9847 36.5069 10.6633 35.5427C10.5318 35.1483 10.4733 34.5055 10.9554 33.7312C11.0139 33.5997 13.3221 29.0563 17.6172 28.092C20.1446 27.5223 22.7889 28.3112 25.4624 30.4149C26.748 31.6275 27.3616 32.1534 29.0562 32.1534C30.6633 32.1534 31.8758 33.7604 32.2118 36.3609C32.5771 39.1366 33.176 42.7743 34.447 46.2075C36.3024 51.2038 38.5814 56.9598 38.6107 57.0183C38.7568 57.3981 38.5814 57.8218 38.2016 57.9679C38.114 57.9971 38.0263 58.0263 37.9386 58.0263Z" fill="#344153"/>
<path d="M32.6209 59.9109L31.5398 58.9321L32.0511 59.4434L31.3207 59.5018C31.2915 59.3411 31.0285 58.0993 27.9898 48.954C26.9379 45.7984 25.3455 43.8115 23.2564 43.0372C20.1008 41.8685 16.7845 43.8115 16.7553 43.8261C16.4047 44.0307 15.9664 43.9138 15.7473 43.5778C15.5427 43.2272 15.6596 42.7889 15.9956 42.5697C16.1563 42.4675 19.9401 40.2469 23.7531 41.664C26.2805 42.599 28.1797 44.9072 29.363 48.4865C33.0007 59.4288 32.9277 59.5018 32.5917 59.9109H32.6209Z" fill="#344153"/>
<path d="M36.7115 37.8218C36.1417 37.8218 35.5866 37.6319 35.1191 37.2812C34.4763 36.7991 34.0818 36.0687 34.038 35.2652L35.4989 35.1921C35.5135 35.5573 35.6888 35.8788 35.9956 36.1125C36.2878 36.3316 36.6384 36.4047 36.9744 36.3316C41.1819 35.309 43.1249 31.2622 42.8619 27.7853C42.7305 25.9591 41.8539 23.7677 39.8378 23.5924C38.3915 23.4609 37.2958 23.7677 36.58 24.4982C35.309 25.7692 35.4989 28.019 35.4989 28.0482C35.5427 28.4427 35.2505 28.8079 34.8415 28.8517C34.4763 28.8809 34.0818 28.6034 34.038 28.1943C34.038 28.0774 33.775 25.2579 35.5427 23.4755C36.58 22.4237 38.0847 21.9854 39.9693 22.1461C42.3798 22.3652 44.0891 24.5274 44.3229 27.683C44.6297 31.7736 42.3214 36.5508 37.3104 37.7633C37.1059 37.8072 36.9014 37.8364 36.6969 37.8364L36.7115 37.8218Z" fill="#344153"/>
<path d="M36.4485 33.8627C36.2878 33.8627 36.1125 33.8627 35.9372 33.8481C35.5281 33.8189 35.2359 33.4682 35.2652 33.0738C35.2944 32.6647 35.645 32.3725 36.0394 32.4018C38.114 32.5625 38.6107 31.6859 38.8298 30.9116C39.0343 30.1519 37.6026 29.4945 37.2082 29.363C36.8283 29.2316 36.6238 28.8225 36.7553 28.4427C36.8868 28.0628 37.2958 27.8729 37.6757 27.9898C38.859 28.3988 40.729 29.553 40.2323 31.3207C39.8963 32.5186 38.9613 33.8919 36.4485 33.8919V33.8627Z" fill="#344153"/>
<path d="M14.6224 34.374C14.447 34.038 14.5201 33.6435 14.7538 33.3514C15.645 32.2411 18.4792 29.4215 22.9642 31.6859C25.6961 33.5267 26.3828 34.301 27.347 34.4178C28.3112 34.5347 27.7122 35.7473 26.6603 35.382C25.6085 35.0168 23.008 34.2279 20.1592 35.0168C16.244 36.1125 15.0168 35.1045 14.637 34.374H14.6224Z" fill="#11CAA9"/>
<path d="M29.4361 45.0095C29.8451 45.0095 30.4295 44.8926 30.824 44.3813C30.9701 44.1914 31.2476 44.206 31.3207 44.4397C32.5917 48.355 34.973 54.8269 35.981 57.3835C36.2148 57.9679 35.9518 58.6399 35.382 58.9028C35.382 58.9028 35.3528 58.9028 35.3528 58.9175C34.6808 59.2242 33.9065 58.8444 33.7166 58.1286C33.0592 55.6888 31.496 50.2542 29.2169 45.3893C29.1293 45.214 29.2462 45.0095 29.4507 44.9949L29.4361 45.0095Z" fill="#11CAA9"/>
</g>
<defs>
<clipPath id="clip0_203_2051">
<rect width="52.3448" height="60" fill="white" transform="translate(5.82761 2)"/>
</clipPath>
</defs>
</svg>
