<svg width="64" height="65" viewBox="0 0 64 65" fill="none" xmlns="http://www.w3.org/2000/svg">
<g clip-path="url(#clip0_203_2528)">
<path d="M18.6345 62.5H45.3511C45.5685 62.5 45.7569 62.384 45.8729 62.2101C53.9618 49.3084 54.4982 39.8424 53.5269 34.1598C53.0486 30.7097 51.6279 27.4626 49.3955 24.7807C43.1186 14.7783 47.424 3.44226 47.4675 3.32629C47.5835 3.00737 47.4385 2.65946 47.1196 2.52899C47.0471 2.5 46.9746 2.5 46.9022 2.5H17.0978C16.7644 2.5 16.489 2.77543 16.489 3.10884C16.489 3.18132 16.489 3.25381 16.5325 3.32629C16.576 3.44226 20.8959 14.7783 14.6045 24.7807C12.3721 27.4626 10.9369 30.7097 10.4731 34.1598C9.50181 39.8279 10.0382 49.2939 18.1271 62.2101C18.2431 62.384 18.4315 62.5 18.6489 62.5H18.6345ZM15.2568 25.9259C20.5045 28.3758 26.2305 29.6225 32.0145 29.5935C37.784 29.5935 43.4955 28.3178 48.7287 25.897C50.5262 28.2453 51.7149 30.9851 52.2078 33.8989C49.0766 33.8119 35.6386 34.0004 32.1305 43.336C31.6231 41.7559 30.7533 40.3062 29.5936 39.103C26.129 35.4645 20.1276 33.7539 11.7922 33.9859C12.2706 31.0576 13.4593 28.2888 15.2423 25.9115L15.2568 25.9259ZM45.0176 61.2823H32.6088V46.6556C33.9135 34.8846 49.8739 35.0441 52.4252 35.1456C53.179 40.6107 52.3817 49.3954 45.0031 61.2823H45.0176ZM17.9531 3.71769H46.0324C45.1336 6.54446 42.7852 15.9815 48.0329 24.8677C37.842 29.521 26.1435 29.5355 15.9526 24.8967C21.2003 16.0105 18.8664 6.55895 17.9531 3.71769ZM11.6038 35.2325C19.6782 34.9716 25.4332 36.5517 28.6949 39.9438C30.4344 41.6979 31.4057 44.0753 31.3912 46.5541V61.2823H18.9824C11.8792 49.8303 10.8065 41.1615 11.6038 35.2325Z" fill="#344153"/>
<path d="M40.8427 34.7397C39.8715 34.7397 38.9872 33.7829 38.7698 32.4493C38.6538 31.7969 38.7263 31.1446 38.9582 30.6082C39.2191 30.0139 39.683 29.6225 40.2194 29.5355C41.2921 29.376 42.2923 30.3618 42.5388 31.8114C42.6547 32.4637 42.5823 33.1161 42.3503 33.6524C42.0894 34.2468 41.6255 34.6382 41.0892 34.7252C41.0022 34.7252 40.9297 34.7397 40.8427 34.7397ZM40.4368 30.5502C40.4368 30.5502 40.3933 30.5502 40.3788 30.5502C40.1904 30.5792 40.0164 30.7532 39.9005 31.0141C39.7555 31.3475 39.712 31.8114 39.7845 32.2608C39.9295 33.1596 40.5238 33.7539 40.9007 33.6814C41.0747 33.6524 41.2486 33.4785 41.3646 33.2176C41.5095 32.8841 41.553 32.4203 41.4806 31.9709C41.3356 31.1301 40.8282 30.5502 40.4368 30.5502Z" fill="#344153"/>
<path d="M40.4803 32.6667C40.2339 32.6667 40.0019 32.4927 39.9584 32.2318C39.915 31.9419 40.1034 31.6809 40.3933 31.623L46.7427 30.5502C47.0326 30.5067 47.2936 30.6952 47.3515 30.9851C47.395 31.275 47.2066 31.536 46.9166 31.594L40.5673 32.6667C40.5673 32.6667 40.5093 32.6667 40.4803 32.6667Z" fill="#344153"/>
<path d="M44.3508 33.1161C44.1044 33.1161 43.8724 32.9421 43.8289 32.6812L43.4665 30.5213C43.4231 30.2313 43.6115 29.9704 43.9014 29.9124C44.1769 29.8689 44.4523 30.0574 44.5103 30.3473L44.8727 32.5072C44.9162 32.7972 44.7277 33.0581 44.4378 33.1161C44.4088 33.1161 44.3798 33.1161 44.3508 33.1161Z" fill="#344153"/>
<path d="M46.6557 32.7247C46.4673 32.7247 46.2933 32.6232 46.1918 32.4493C45.9889 32.0724 45.8439 31.681 45.7714 31.2606C45.699 30.8257 45.699 30.3908 45.7714 29.9559C45.8004 29.7385 45.9744 29.5645 46.2063 29.521L48.7142 29.1006C49.0041 29.0572 49.265 29.2456 49.323 29.5355C49.3665 29.8255 49.1781 30.0864 48.8881 30.1444L46.7717 30.5068C46.7717 30.7097 46.7717 30.8982 46.8152 31.1011C46.8442 31.2896 46.9022 31.4635 46.9601 31.6375L49.0766 31.2751C49.3665 31.2316 49.6274 31.42 49.6854 31.71C49.7289 31.9999 49.5405 32.2608 49.2505 32.3188L46.7427 32.7392C46.7427 32.7392 46.6847 32.7392 46.6557 32.7392V32.7247Z" fill="#344153"/>
<path d="M38.7553 35.5225C38.6248 35.5225 38.4943 35.479 38.3928 35.3775C38.0015 35.0151 37.3056 34.2178 37.0302 33.0001C36.6968 31.5505 37.1462 30.3618 37.4506 29.7819C37.5811 29.521 37.9 29.4195 38.1609 29.55C38.4218 29.6805 38.5233 29.9994 38.3928 30.2603C38.1609 30.7097 37.813 31.6375 38.0594 32.7682C38.2769 33.7104 38.8132 34.3338 39.1177 34.6092C39.3351 34.8121 39.3351 35.1455 39.1467 35.3485C39.0452 35.4645 38.9002 35.508 38.7698 35.508L38.7553 35.5225Z" fill="#344153"/>
<path d="M23.1283 34.7397C23.0413 34.7397 22.9688 34.7397 22.8819 34.7252C22.3455 34.6382 21.8816 34.2468 21.6207 33.6524C21.3887 33.1306 21.3163 32.4782 21.4322 31.8114C21.6787 30.3618 22.6934 29.376 23.7516 29.5355C24.288 29.6225 24.7519 30.0139 25.0128 30.6082C25.2447 31.1301 25.3172 31.7824 25.2013 32.4493C24.9693 33.7974 24.085 34.7397 23.1283 34.7397ZM23.5342 30.5502C23.1428 30.5502 22.6209 31.1301 22.476 31.9709C22.4035 32.4203 22.447 32.8696 22.5919 33.2176C22.7079 33.4785 22.8819 33.6524 23.0703 33.6814C23.4762 33.7394 24.0416 33.1596 24.1865 32.2608C24.259 31.8114 24.2155 31.362 24.0705 31.0141C23.9546 30.7532 23.7806 30.5792 23.5922 30.5502C23.5777 30.5502 23.5487 30.5502 23.5342 30.5502Z" fill="#344153"/>
<path d="M23.4907 32.6667C23.4907 32.6667 23.4327 32.6667 23.4037 32.6667L17.0544 31.594C16.7644 31.5505 16.576 31.2751 16.6195 30.9851C16.663 30.6952 16.9529 30.5213 17.2283 30.5503L23.5777 31.623C23.8676 31.6665 24.0561 31.9419 24.0126 32.2318C23.9691 32.4928 23.7516 32.6667 23.4907 32.6667Z" fill="#344153"/>
<path d="M19.6202 33.1161C19.6202 33.1161 19.5622 33.1161 19.5332 33.1161C19.2433 33.0726 19.0548 32.7972 19.0983 32.5073L19.4607 30.3473C19.5042 30.0574 19.7797 29.8834 20.0696 29.9124C20.3595 29.9559 20.548 30.2314 20.5045 30.5213L20.1421 32.6812C20.0986 32.9422 19.8811 33.1161 19.6202 33.1161Z" fill="#344153"/>
<path d="M17.3008 32.7247C17.3008 32.7247 17.2428 32.7247 17.2138 32.7247L14.706 32.3043C14.416 32.2608 14.2276 31.9854 14.2711 31.6955C14.3146 31.4055 14.59 31.2316 14.8799 31.2606L16.9964 31.623C17.0689 31.449 17.1123 31.2751 17.1413 31.0866C17.1703 30.8837 17.1848 30.6952 17.1848 30.4923L15.0684 30.1299C14.7784 30.0864 14.59 29.811 14.6335 29.521C14.677 29.2311 14.9524 29.0572 15.2423 29.0861L17.7502 29.5065C17.9676 29.55 18.1416 29.724 18.1851 29.9414C18.2575 30.3763 18.2575 30.8112 18.1851 31.2461C18.1126 31.6665 17.9676 32.0724 17.7647 32.4348C17.6777 32.6087 17.4892 32.7102 17.3008 32.7102V32.7247Z" fill="#344153"/>
<path d="M25.2157 35.5225C25.0708 35.5225 24.9403 35.4645 24.8388 35.363C24.6359 35.1455 24.6504 34.8266 24.8678 34.6237C25.1723 34.3338 25.7086 33.7249 25.9261 32.7827C26.187 31.6519 25.8246 30.7387 25.5927 30.2893C25.4622 30.0284 25.5637 29.7095 25.8246 29.579C26.0855 29.4485 26.4044 29.55 26.5349 29.8109C26.8393 30.3908 27.2887 31.5795 26.9553 33.0291C26.6799 34.2323 25.9841 35.0296 25.5927 35.4065C25.4912 35.508 25.3607 35.5514 25.2302 35.5514L25.2157 35.5225Z" fill="#344153"/>
<path d="M32.5219 22.0845C31.0432 22.0845 29.8835 21.2437 29.8835 20.171C29.8835 19.0982 31.0432 18.2574 32.5219 18.2574C34.0005 18.2574 35.1602 19.0982 35.1602 20.171C35.1602 21.2437 34.0005 22.0845 32.5219 22.0845ZM32.5219 19.3012C31.6086 19.3012 30.9418 19.7506 30.9418 20.1565C30.9418 20.5624 31.6231 21.0262 32.5219 21.0262C33.4206 21.0262 34.102 20.5768 34.102 20.1565C34.102 19.7361 33.4206 19.3012 32.5219 19.3012Z" fill="#344153"/>
<path d="M32.5219 24.6647C31.0432 24.6647 29.8835 23.824 29.8835 22.7512C29.8835 21.925 30.6084 21.1856 31.6811 20.9392L31.913 21.9539C31.3332 22.0844 30.9273 22.4178 30.9273 22.7367C30.9273 23.1426 31.6086 23.592 32.5074 23.592C33.4061 23.592 34.102 23.1426 34.102 22.7367C34.102 22.4178 33.6816 22.0844 33.1162 21.9539L33.3482 20.9392C34.4209 21.1856 35.1457 21.9105 35.1457 22.7512C35.1457 23.824 33.986 24.6647 32.5074 24.6647H32.5219Z" fill="#344153"/>
<path d="M30.9418 20.171H29.898V22.7658H30.9418V20.171Z" fill="#344153"/>
<path d="M35.1602 20.171H34.1165V22.7658H35.1602V20.171Z" fill="#344153"/>
<path d="M32.5219 20.8522C32.2319 20.8522 32 20.6203 32 20.3304V13.8795C32 13.5896 32.2319 13.3577 32.5219 13.3577C32.8118 13.3577 33.0437 13.5896 33.0437 13.8795V20.3304C33.0437 20.6203 32.8118 20.8522 32.5219 20.8522Z" fill="#344153"/>
<path d="M33.6091 17.1122H31.4057C31.1157 17.1122 30.8838 16.8803 30.8838 16.5903C30.8838 16.3004 31.1157 16.0685 31.4057 16.0685H33.6091C33.899 16.0685 34.1309 16.3004 34.1309 16.5903C34.1309 16.8803 33.899 17.1122 33.6091 17.1122Z" fill="#344153"/>
<path d="M32.5074 14.9523C32.0725 14.9523 31.6521 14.8798 31.2462 14.7493C31.0287 14.6769 30.8838 14.4739 30.8838 14.2565V11.7196C30.8838 11.4297 31.1157 11.1978 31.4057 11.1978C31.6956 11.1978 31.9275 11.4297 31.9275 11.7196V13.8651C32.116 13.9086 32.3334 13.9375 32.5219 13.9231C32.7103 13.9231 32.8988 13.9086 33.0727 13.8651V11.7196C33.0727 11.4297 33.3047 11.1978 33.5946 11.1978C33.8845 11.1978 34.1165 11.4297 34.1165 11.7196V14.2565C34.1165 14.4739 33.9715 14.6769 33.754 14.7493C33.3482 14.8798 32.9423 14.9523 32.5074 14.9523Z" fill="#344153"/>
<path d="M32.6088 26.4913C31.2607 26.4913 30.2604 25.897 29.7821 25.5346C29.5501 25.3606 29.5066 25.0272 29.6806 24.7952C29.8546 24.5633 30.1735 24.5198 30.4199 24.6938C30.7533 24.9402 31.6376 25.5201 32.8263 25.4331C33.783 25.3751 34.4934 24.9547 34.8268 24.6938C35.0587 24.5198 35.3921 24.5633 35.5661 24.7952C35.74 25.0272 35.6965 25.3606 35.4646 25.5346C34.9427 25.926 34.073 26.4188 32.8988 26.4768C32.8118 26.4768 32.7248 26.4768 32.6378 26.4768L32.6088 26.4913Z" fill="#344153"/>
<path d="M42.6403 60.3256C44.2493 57.6873 46.3078 53.6283 47.482 48.3082C48.4822 43.7853 48.5112 39.8569 48.3083 37.0301C48.9026 36.6097 49.236 36.6387 50.2508 36.5807C51.0336 36.5372 51.1496 36.5952 51.425 36.6387C51.3815 39.7119 51.0046 44.0028 49.4825 48.888C47.9314 53.9182 45.728 57.7597 43.9739 60.3401H42.6258L42.6403 60.3256Z" fill="#11CAA9"/>
</g>
<defs>
<clipPath id="clip0_203_2528">
<rect width="43.7787" height="60" fill="white" transform="translate(10.1107 2.5)"/>
</clipPath>
</defs>
</svg>
